<svg xmlns="http://www.w3.org/2000/svg" xmlns:xlink="http://www.w3.org/1999/xlink" width="500" zoomAndPan="magnify" viewBox="0 0 375 374.999991" height="500" preserveAspectRatio="xMidYMid meet" version="1.0"><defs><g/><clipPath id="3e11c77042"><path d="M 37.5 37.5 L 338.863281 37.5 L 338.863281 338.863281 L 37.5 338.863281 Z M 37.5 37.5 " clip-rule="nonzero"/></clipPath><clipPath id="4474e43bdc"><path d="M 188.179688 37.5 C 104.960938 37.5 37.5 104.960938 37.5 188.179688 C 37.5 271.398438 104.960938 338.863281 188.179688 338.863281 C 271.398438 338.863281 338.863281 271.398438 338.863281 188.179688 C 338.863281 104.960938 271.398438 37.5 188.179688 37.5 Z M 188.179688 37.5 " clip-rule="nonzero"/></clipPath></defs><rect x="-37.5" width="450" fill="#ffffff" y="-37.499999" height="449.999989" fill-opacity="1"/><rect x="-37.5" width="450" fill="#ffffff" y="-37.499999" height="449.999989" fill-opacity="1"/><g clip-path="url(#3e11c77042)"><g clip-path="url(#4474e43bdc)"><path fill="#7ed957" d="M 37.5 37.5 L 338.863281 37.5 L 338.863281 338.863281 L 37.5 338.863281 Z M 37.5 37.5 " fill-opacity="1" fill-rule="nonzero"/></g></g><path fill="#298d37" d="M 190.550781 288.25 C 184.882812 275.203125 176.460938 249.804688 184.734375 222.679688 C 198.304688 178.179688 251.554688 146.273438 315.636719 150.40625 C 324.148438 204.695312 303.175781 255.554688 263.664062 278.246094 C 237.046875 293.53125 209.472656 291.75 196.414062 289.929688 C 209.785156 279.792969 224.792969 266.773438 239.796875 250.289062 C 262.953125 224.847656 278.410156 199.601562 288.640625 179.460938 C 273.945312 199.957031 256.28125 222.105469 235.179688 244.730469 C 219.957031 261.058594 204.917969 275.515625 190.550781 288.25 Z M 190.550781 288.25 " fill-opacity="1" fill-rule="nonzero"/><path fill="#298d37" d="M 173.464844 289.671875 C 163.464844 292.691406 144.21875 296.671875 125.140625 288.328125 C 93.835938 274.636719 75.097656 233.074219 83.574219 186.679688 C 123.898438 185.097656 159.210938 204.730469 172.398438 235.484375 C 181.277344 256.203125 177.632812 276.164062 175.1875 285.535156 C 168.933594 274.917969 160.714844 262.859375 149.96875 250.511719 C 133.386719 231.453125 116.289062 218.023438 102.464844 208.847656 C 116.167969 221.3125 130.816406 236.082031 145.523438 253.40625 C 156.136719 265.902344 165.398438 278.105469 173.464844 289.671875 Z M 173.464844 289.671875 " fill-opacity="1" fill-rule="nonzero"/><g fill="#376b50" fill-opacity="1"><g transform="translate(73.338682, 175.883721)"><g><path d="M 2.875 -19.15625 C 2.625 -22.769531 2.207031 -25.707031 1.625 -27.96875 C 1.039062 -30.226562 0.046875 -32.015625 -1.359375 -33.328125 C 0.410156 -34.921875 2.390625 -35.796875 4.578125 -35.953125 C 6.203125 -36.066406 7.582031 -35.671875 8.71875 -34.765625 C 9.851562 -33.867188 10.773438 -32.289062 11.484375 -30.03125 C 12.203125 -27.78125 12.695312 -24.703125 12.96875 -20.796875 C 13.363281 -15.097656 13.613281 -10.1875 13.71875 -6.0625 L 14.296875 -6.109375 C 17.359375 -11.816406 19.632812 -16.789062 21.125 -21.03125 C 22.613281 -25.28125 23.285156 -28.414062 23.140625 -30.4375 C 23.015625 -32.164062 22.546875 -33.671875 21.734375 -34.953125 C 22.640625 -35.710938 23.703125 -36.328125 24.921875 -36.796875 C 26.140625 -37.273438 27.320312 -37.550781 28.46875 -37.625 C 29.96875 -37.726562 31.125 -37.40625 31.9375 -36.65625 C 32.757812 -35.90625 33.226562 -34.742188 33.34375 -33.171875 C 33.488281 -31.160156 32.984375 -28.34375 31.828125 -24.71875 C 30.679688 -21.101562 28.453125 -15.414062 25.140625 -7.65625 L 26.0625 -4.984375 C 24.6875 -3.535156 22.847656 -2.296875 20.546875 -1.265625 C 18.253906 -0.242188 16.066406 0.34375 13.984375 0.5 C 11.628906 0.65625 9.710938 0.367188 8.234375 -0.359375 C 6.765625 -1.085938 5.640625 -2.332031 4.859375 -4.09375 C 4.078125 -5.863281 3.578125 -8.273438 3.359375 -11.328125 Z M 2.875 -19.15625 "/></g></g></g><g fill="#376b50" fill-opacity="1"><g transform="translate(104.836416, 173.394326)"><g><path d="M 33.953125 -17.171875 C 33.597656 -14.953125 32.535156 -13.144531 30.765625 -11.75 C 28.992188 -10.363281 26.628906 -9.46875 23.671875 -9.0625 C 20.710938 -8.65625 17.300781 -8.757812 13.4375 -9.375 L 13.359375 -8.9375 C 13.015625 -6.75 13.125 -4.972656 13.6875 -3.609375 C 14.25 -2.242188 15.203125 -1.453125 16.546875 -1.234375 C 18.191406 -0.972656 19.644531 -1.363281 20.90625 -2.40625 C 22.164062 -3.457031 22.984375 -4.960938 23.359375 -6.921875 C 25.285156 -6.617188 26.703125 -6.03125 27.609375 -5.15625 C 28.515625 -4.28125 28.863281 -3.164062 28.65625 -1.8125 C 28.4375 -0.46875 27.671875 0.679688 26.359375 1.640625 C 25.054688 2.597656 23.375 3.25 21.3125 3.59375 C 19.257812 3.945312 17.054688 3.9375 14.703125 3.5625 C 10.679688 2.925781 7.707031 1.367188 5.78125 -1.109375 C 3.851562 -3.597656 3.191406 -6.742188 3.796875 -10.546875 C 4.347656 -13.992188 5.660156 -16.96875 7.734375 -19.46875 C 9.804688 -21.96875 12.421875 -23.769531 15.578125 -24.875 C 18.734375 -25.976562 22.117188 -26.242188 25.734375 -25.671875 C 28.703125 -25.203125 30.898438 -24.222656 32.328125 -22.734375 C 33.765625 -21.253906 34.304688 -19.398438 33.953125 -17.171875 Z M 23.1875 -20.28125 C 21.601562 -20.53125 20 -19.953125 18.375 -18.546875 C 16.757812 -17.148438 15.460938 -15.273438 14.484375 -12.921875 C 17.722656 -12.679688 20.285156 -12.953125 22.171875 -13.734375 C 24.066406 -14.523438 25.148438 -15.773438 25.421875 -17.484375 C 25.523438 -18.191406 25.375 -18.800781 24.96875 -19.3125 C 24.5625 -19.832031 23.96875 -20.15625 23.1875 -20.28125 Z M 23.1875 -20.28125 "/></g></g></g><g fill="#376b50" fill-opacity="1"><g transform="translate(133.255665, 177.817424)"><g><path d="M 7.515625 4.078125 C 5.648438 3.390625 4.460938 2.410156 3.953125 1.140625 C 3.453125 -0.117188 3.550781 -1.695312 4.25 -3.59375 C 4.65625 -4.695312 5.789062 -6.851562 7.65625 -10.0625 C 9.519531 -13.269531 11.410156 -16.347656 13.328125 -19.296875 L 12.25 -23.875 C 13.707031 -24.238281 15.0625 -24.445312 16.3125 -24.5 C 17.570312 -24.5625 18.753906 -24.390625 19.859375 -23.984375 C 21.117188 -23.515625 21.945312 -22.859375 22.34375 -22.015625 C 22.75 -21.171875 22.742188 -20.195312 22.328125 -19.09375 C 21.984375 -18.144531 21.519531 -17.253906 20.9375 -16.421875 C 20.351562 -15.597656 19.578125 -14.632812 18.609375 -13.53125 L 18.984375 -13.140625 C 20.609375 -15.085938 22.035156 -16.601562 23.265625 -17.6875 C 24.503906 -18.78125 25.773438 -19.53125 27.078125 -19.9375 C 28.378906 -20.34375 29.769531 -20.273438 31.25 -19.734375 C 32.65625 -19.210938 33.617188 -18.390625 34.140625 -17.265625 C 34.671875 -16.148438 34.6875 -14.90625 34.1875 -13.53125 C 33.582031 -11.90625 32.570312 -10.757812 31.15625 -10.09375 C 29.75 -9.4375 28.109375 -9.453125 26.234375 -10.140625 C 24.796875 -10.679688 23.285156 -10.632812 21.703125 -10 C 20.117188 -9.375 18.644531 -8.253906 17.28125 -6.640625 C 15.914062 -5.035156 14.816406 -3.101562 13.984375 -0.84375 C 13.273438 1.050781 13.082031 2.566406 13.40625 3.703125 C 11.226562 4.597656 9.265625 4.722656 7.515625 4.078125 Z M 7.515625 4.078125 "/></g></g></g><g fill="#376b50" fill-opacity="1"><g transform="translate(155.077208, 184.876079)"><g><path d="M 48.6875 -9.9375 C 48.238281 -9.226562 47.550781 -8.375 46.625 -7.375 C 45.695312 -6.375 44.394531 -5.03125 42.71875 -3.34375 C 39.90625 -0.582031 37.476562 1.9375 35.4375 4.21875 C 33.394531 6.507812 31.585938 8.894531 30.015625 11.375 C 29.210938 12.644531 28.726562 13.632812 28.5625 14.34375 C 28.40625 15.050781 28.367188 15.820312 28.453125 16.65625 C 27.296875 16.84375 26.144531 16.816406 25 16.578125 C 23.863281 16.335938 22.878906 15.957031 22.046875 15.4375 C 20.398438 14.382812 19.515625 13.144531 19.390625 11.71875 C 19.273438 10.289062 19.863281 8.554688 21.15625 6.515625 L 21.25 6.359375 L 20.9375 5.84375 C 18.875 7.320312 16.765625 8.160156 14.609375 8.359375 C 12.453125 8.554688 10.476562 8.085938 8.6875 6.953125 C 7.144531 5.972656 6.039062 4.710938 5.375 3.171875 C 4.707031 1.628906 4.523438 -0.078125 4.828125 -1.953125 C 5.128906 -3.835938 5.890625 -5.742188 7.109375 -7.671875 C 8.984375 -10.617188 11.34375 -12.796875 14.1875 -14.203125 C 17.039062 -15.609375 20.113281 -16.148438 23.40625 -15.828125 C 26.707031 -15.515625 29.96875 -14.335938 33.1875 -12.296875 C 34.207031 -11.648438 35.09375 -10.972656 35.84375 -10.265625 L 37.609375 -12.21875 L 37.390625 -16.984375 C 39.203125 -17.109375 40.960938 -17.015625 42.671875 -16.703125 C 44.378906 -16.398438 45.835938 -15.867188 47.046875 -15.109375 C 48.335938 -14.285156 49.097656 -13.476562 49.328125 -12.6875 C 49.566406 -11.894531 49.351562 -10.976562 48.6875 -9.9375 Z M 25.546875 1.0625 C 27.128906 -0.71875 29.582031 -3.429688 32.90625 -7.078125 C 30.84375 -8.109375 28.726562 -8.675781 26.5625 -8.78125 C 24.394531 -8.894531 22.398438 -8.535156 20.578125 -7.703125 C 18.753906 -6.878906 17.335938 -5.671875 16.328125 -4.078125 C 15.472656 -2.734375 15.097656 -1.515625 15.203125 -0.421875 C 15.304688 0.660156 15.867188 1.53125 16.890625 2.1875 C 17.960938 2.863281 19.265625 3.097656 20.796875 2.890625 C 22.335938 2.691406 23.921875 2.082031 25.546875 1.0625 Z M 25.546875 1.0625 "/></g></g></g><g fill="#dfff41" fill-opacity="1"><g transform="translate(220.596046, 164.790758)"><g><path d="M 7.734375 -5.0625 L 2.890625 -1.890625 L -12.125 -24.796875 L -7.28125 -27.96875 Z M 7.734375 -5.0625 "/></g></g></g><g fill="#dfff41" fill-opacity="1"><g transform="translate(232.626846, 156.673114)"><g><path d="M 8.078125 -28.578125 L -0.984375 -24.4375 L 1.515625 -18.96875 L 9.9375 -22.8125 L 11.921875 -18.46875 L 3.5 -14.625 L 6.4375 -8.203125 L 15.5 -12.34375 L 17.484375 -7.984375 L 3.140625 -1.4375 L -8.234375 -26.359375 L 6.109375 -32.90625 Z M 8.078125 -28.578125 "/></g></g></g><g fill="#dfff41" fill-opacity="1"><g transform="translate(253.499396, 147.304504)"><g><path d="M 0.078125 -6.890625 C 2.117188 -6.554688 3.789062 -6.378906 5.09375 -6.359375 C 6.40625 -6.335938 7.628906 -6.46875 8.765625 -6.75 C 9.898438 -7.03125 10.734375 -7.492188 11.265625 -8.140625 C 11.796875 -8.785156 11.945312 -9.570312 11.71875 -10.5 C 11.582031 -11.007812 11.328125 -11.425781 10.953125 -11.75 C 10.585938 -12.070312 10.066406 -12.359375 9.390625 -12.609375 C 8.710938 -12.867188 7.429688 -13.179688 5.546875 -13.546875 C 3.660156 -13.921875 2.234375 -14.351562 1.265625 -14.84375 C -0.898438 -15.925781 -2.273438 -17.625 -2.859375 -19.9375 C -3.441406 -22.257812 -3.109375 -24.296875 -1.859375 -26.046875 C -0.585938 -27.785156 1.445312 -29.007812 4.25 -29.71875 C 6.613281 -30.3125 9.398438 -30.34375 12.609375 -29.8125 L 11.890625 -24.984375 C 10.378906 -25.191406 9.125 -25.300781 8.125 -25.3125 C 7.125 -25.320312 6.132812 -25.203125 5.15625 -24.953125 C 4.1875 -24.710938 3.46875 -24.273438 3 -23.640625 C 2.53125 -23.003906 2.398438 -22.28125 2.609375 -21.46875 C 2.734375 -20.96875 2.957031 -20.5625 3.28125 -20.25 C 3.601562 -19.9375 4.054688 -19.671875 4.640625 -19.453125 C 5.222656 -19.234375 6.570312 -18.910156 8.6875 -18.484375 C 11.457031 -17.929688 13.453125 -17.164062 14.671875 -16.1875 C 15.898438 -15.257812 16.738281 -13.914062 17.1875 -12.15625 C 17.78125 -9.78125 17.382812 -7.671875 16 -5.828125 C 14.625 -4.015625 12.453125 -2.738281 9.484375 -2 C 6.523438 -1.257812 3.828125 -1.148438 1.390625 -1.671875 Z M 0.078125 -6.890625 "/></g></g></g></svg>